<?xml version="1.0" encoding="UTF-8"?>
<svg xmlns="http://www.w3.org/2000/svg" version="1.1" viewBox="0 0 45 45">
  <!-- Generator: Adobe Illustrator 29.4.0, SVG Export Plug-In . SVG Version: 2.1.0 Build 152)  -->
  <defs>
    <style>
      .st0 {
        fill: #fff;
        stroke: #fff;
        stroke-miterlimit: 10;
      }

      .st1 {
        fill: #438ecc;
      }
    </style>
  </defs>
  <g id="Capa_1">
    <path class="st1" d="M40.15,28.57c0,4.28-1.89,8.28-5.33,11.29-3.44,3.02-8.03,4.68-12.88,4.68s-9.44-1.66-12.88-4.68-5.33-7.04-5.33-11.29c0-7.16,8.16-16.81,14.1-23.85,1.28-1.52,2.51-2.97,3.49-4.21.13-.19.37-.28.61-.28s.48.12.61.28c.99,1.24,2.21,2.69,3.49,4.21,5.95,7.06,14.1,16.72,14.1,23.85Z"/>
  </g>
  <g id="Capa_2">
    <g>
      <path class="st0" d="M17.14,27.36c-.59,0-1.06-.48-1.06-1.06v-2.85c0-.59.48-1.06,1.06-1.06s1.06.48,1.06,1.06v2.85c0,.59-.48,1.06-1.06,1.06Z"/>
      <path class="st0" d="M25.59,27.36c-.59,0-1.06-.48-1.06-1.06v-2.85c0-.59.48-1.06,1.06-1.06s1.06.48,1.06,1.06v2.85c0,.59-.48,1.06-1.06,1.06Z"/>
      <path class="st0" d="M19.18,32.43c-.06-.01-.12-.03-.18-.04-.94-.27-1.68-1.03-2.08-2.12-.12-.33,0-.76.27-.96.27-.2.59-.1.71.24.28.76.79,1.28,1.45,1.47.68.2,1.42.03,2.09-.48.27-.2.59-.09.71.24.12.33,0,.76-.27.96-.87.65-1.82.89-2.71.69Z"/>
      <rect class="st0" x="20.94" y="15.23" width="1.42" height="3.28"/>
      <path class="st0" d="M21.65,16.64c-1.37,0-2.49-1.07-2.49-2.38s1.12-2.38,2.49-2.38,2.49,1.07,2.49,2.38-1.12,2.38-2.49,2.38ZM21.65,13.3c-.59,0-1.07.43-1.07.97s.48.97,1.07.97,1.07-.43,1.07-.97-.48-.97-1.07-.97Z"/>
      <path class="st0" d="M19.77,40.6c-.1,0-.19-.02-.28-.06-.26-.11-.43-.37-.43-.65v-2.82h-4.51c-1.72,0-3.12-1.33-3.12-2.97v-13.33c0-1.64,1.4-2.97,3.12-2.97h14.2c1.72,0,3.12,1.33,3.12,2.97v13.33c0,1.64-1.4,2.97-3.12,2.97h-4.94l-3.56,3.34c-.13.13-.31.19-.48.19ZM14.55,19.22c-.94,0-1.7.7-1.7,1.56v13.33c0,.86.76,1.56,1.7,1.56h5.22c.39,0,.71.32.71.71v1.9l2.57-2.41c.13-.12.3-.19.48-.19h5.22c.94,0,1.7-.7,1.7-1.56v-13.33c0-.86-.76-1.56-1.7-1.56h-14.2Z"/>
      <path class="st0" d="M12.14,29.23c-.09,0-.18-.02-.27-.05l-2.78-1.16c-.26-.11-.43-.35-.44-.63,0-.28.14-.53.39-.66l2.78-1.38c.22-.11.48-.1.69.03.21.13.33.36.33.6v2.54c0,.24-.12.46-.32.59-.12.08-.26.12-.39.12ZM11.07,27.31l.36.15v-.33l-.36.18Z"/>
      <path class="st0" d="M31.74,29.34c-.14,0-.28-.04-.39-.12-.2-.13-.32-.35-.32-.59v-2.54c0-.24.13-.47.33-.6.21-.13.47-.14.69-.03l2.78,1.38c.25.12.4.38.39.66,0,.28-.18.52-.44.63l-2.78,1.16c-.09.04-.18.05-.27.05ZM32.45,27.24v.33l.37-.15-.37-.18Z"/>
    </g>
  </g>
</svg>