<?xml version="1.0" encoding="UTF-8"?>
<svg xmlns="http://www.w3.org/2000/svg" version="1.1" viewBox="0 0 45 45">
  <!-- Generator: Adobe Illustrator 29.4.0, SVG Export Plug-In . SVG Version: 2.1.0 Build 152)  -->
  <defs>
    <style>
      .st0 {
        fill: #b87332;
      }

      .st1 {
        fill: #333;
      }

      .st2 {
        fill: #cd7f31;
      }

      .st3 {
        fill: #fff;
      }
    </style>
  </defs>
  <g id="Capa_1">
    <path class="st2" d="M35.38,27.49c0,3.44-1.34,6.68-3.77,9.11-2.43,2.43-5.67,3.77-9.11,3.77s-6.68-1.34-9.11-3.77-3.77-5.67-3.77-9.11c0-5.77,5.77-13.55,9.98-19.24.91-1.23,1.77-2.39,2.47-3.39.1-.14.26-.23.43-.23s.34.08.43.23c.7,1,1.56,2.16,2.47,3.39,4.21,5.69,9.98,13.47,9.98,19.24Z"/>
    <path class="st0" d="M22.5,4.63c-7.44,15.31-9.74,28.27,0,35.74-3.44,0-6.68-1.34-9.11-3.77s-3.77-5.67-3.77-9.11c0-5.77,5.77-13.55,9.98-19.24.91-1.23,1.77-2.39,2.47-3.39.1-.14.26-.23.43-.23Z"/>
    <path class="st3" d="M26.45,37.51c-.48,0-.88-.38-.9-.86-.02-.5.36-.92.86-.94,1.81-.09,5.8-4.22,5.8-8.44,0-.5.4-.9.9-.9h0c.5,0,.9.4.9.9,0,4.77-4.41,10.09-7.52,10.24-.01,0-.03,0-.04,0Z"/>
  </g>
  <g id="Capa_2">
    <path class="st1" d="M18.1,16.14c1.1-.97,2.59-1.45,4.48-1.45,1.25,0,2.32.22,3.21.65.89.43,1.57,1.02,2.02,1.77.46.75.69,1.59.69,2.52,0,1.1-.27,2-.82,2.69-.55.69-1.19,1.16-1.93,1.41v.1c.95.32,1.7.84,2.25,1.58.55.73.83,1.67.83,2.83,0,1.03-.24,1.95-.71,2.74-.47.79-1.17,1.41-2.07,1.86-.91.45-1.99.68-3.24.68-2,0-3.6-.49-4.79-1.48-1.19-.98-1.82-2.47-1.89-4.45h4.15c.02.73.22,1.31.62,1.74.4.42.98.64,1.75.64.65,0,1.15-.19,1.51-.56.36-.38.54-.87.54-1.49,0-.8-.25-1.38-.76-1.74-.51-.36-1.32-.54-2.44-.54h-.8v-3.48h.8c.85,0,1.54-.15,2.06-.44.53-.29.79-.81.79-1.56,0-.6-.17-1.07-.5-1.4-.33-.33-.79-.5-1.38-.5-.63,0-1.1.19-1.41.58s-.49.86-.54,1.42h-4.18c.07-1.78.65-3.16,1.75-4.12Z"/>
  </g>
</svg>