<?xml version="1.0" encoding="UTF-8"?>
<svg xmlns="http://www.w3.org/2000/svg" version="1.1" viewBox="0 0 45 45">
  <!-- Generator: Adobe Illustrator 29.4.0, SVG Export Plug-In . SVG Version: 2.1.0 Build 152)  -->
  <defs>
    <style>
      .st0 {
        fill: #333;
      }

      .st1 {
        fill: #fff;
      }

      .st2 {
        fill: gold;
      }

      .st3 {
        fill: #f2b91c;
      }
    </style>
  </defs>
  <g id="Capa_1">
    <path class="st2" d="M35.38,27.49c0,3.44-1.34,6.68-3.77,9.11-2.43,2.43-5.67,3.77-9.11,3.77s-6.68-1.34-9.11-3.77-3.77-5.67-3.77-9.11c0-5.77,5.77-13.55,9.98-19.24.91-1.23,1.77-2.39,2.47-3.39.1-.14.26-.23.43-.23s.34.08.43.23c.7,1,1.56,2.16,2.47,3.39,4.21,5.69,9.98,13.47,9.98,19.24Z"/>
    <path class="st3" d="M22.5,4.63c-7.44,15.31-9.74,28.27,0,35.74-3.44,0-6.68-1.34-9.11-3.77s-3.77-5.67-3.77-9.11c0-5.77,5.77-13.55,9.98-19.24.91-1.23,1.77-2.39,2.47-3.39.1-.14.26-.23.43-.23Z"/>
    <path class="st1" d="M26.45,37.51c-.48,0-.88-.38-.9-.86-.02-.5.36-.92.86-.94,1.81-.09,5.8-4.22,5.8-8.44,0-.5.4-.9.9-.9h0c.5,0,.9.4.9.9,0,4.77-4.41,10.09-7.52,10.24-.01,0-.03,0-.04,0Z"/>
  </g>
  <g id="Capa_2">
    <path class="st0" d="M18.34,20.35v-3.98h6.93v18.25h-4.45v-14.27h-2.48Z"/>
  </g>
</svg>