<?xml version="1.0" encoding="UTF-8"?>
<svg xmlns="http://www.w3.org/2000/svg" version="1.1" viewBox="0 0 45 45">
  <!-- Generator: Adobe Illustrator 29.4.0, SVG Export Plug-In . SVG Version: 2.1.0 Build 152)  -->
  <defs>
    <style>
      .st0 {
        fill: #479;
      }

      .st1 {
        stroke: #eb5b28;
        stroke-width: .1px;
      }

      .st1, .st2, .st3 {
        fill: none;
        stroke-miterlimit: 10;
      }

      .st2 {
        stroke: #479;
      }

      .st4 {
        fill: #fff;
      }

      .st5 {
        display: none;
      }

      .st3 {
        stroke: #1b1b1b;
        stroke-width: .3px;
      }

      .st6 {
        fill: #438ecc;
      }
    </style>
  </defs>
  <g id="Capa_3">
    <polygon class="st0" points="10.82 32.42 10.82 45 23.5 40.07 34.18 45 34.18 32.42 10.82 32.42"/>
  </g>
  <g id="Capa_2">
    <circle class="st6" cx="22.5" cy="18.39" r="18.39"/>
    <circle class="st2" cx="22.5" cy="18.39" r="15.32"/>
  </g>
  <g id="Capa_1">
    <g id="Capa_31" data-name="Capa_3" class="st5">
      <circle class="st1" cx="22.5" cy="22.5" r="18.75"/>
      <rect class="st1" x="5.62" y="5.62" width="33.75" height="33.75" rx="1.01" ry="1.01"/>
      <rect class="st1" x="3.75" y="7.5" width="37.5" height="30" rx="1.01" ry="1.01"/>
      <rect class="st1" x="7.5" y="3.75" width="30" height="37.5" rx="1.01" ry="1.01"/>
      <rect class="st1" x="3.75" y="3.75" width="37.5" height="37.5" rx="1.01" ry="1.01"/>
      <rect class="st3" width="45" height="45"/>
    </g>
    <path class="st4" d="M31.07,21.7c0,2.3-.89,4.44-2.51,6.06-1.62,1.62-3.78,2.51-6.06,2.51s-4.44-.89-6.06-2.51-2.51-3.78-2.51-6.06c0-3.84,3.84-9.02,6.63-12.79.6-.82,1.18-1.59,1.64-2.26.06-.1.18-.15.29-.15s.23.06.29.15c.46.66,1.04,1.44,1.64,2.26,2.8,3.79,6.63,8.97,6.63,12.79Z"/>
  </g>
</svg>