<?xml version="1.0" encoding="UTF-8"?>
<svg id="Capa_1" xmlns="http://www.w3.org/2000/svg" version="1.1" viewBox="0 0 45 45">
  <!-- Generator: Adobe Illustrator 29.4.0, SVG Export Plug-In . SVG Version: 2.1.0 Build 152)  -->
  <defs>
    <style>
      .st0 {
        stroke: #eb5b28;
        stroke-width: .1px;
      }

      .st0, .st1 {
        fill: none;
        stroke-miterlimit: 10;
      }

      .st2 {
        fill: #428ecd;
      }

      .st3 {
        display: none;
      }

      .st1 {
        stroke: #1b1b1b;
        stroke-width: .3px;
      }
    </style>
  </defs>
  <g id="Capa_3" class="st3">
    <circle class="st0" cx="22.5" cy="22.5" r="18.75"/>
    <rect class="st0" x="5.62" y="5.62" width="33.75" height="33.75" rx="1.01" ry="1.01"/>
    <rect class="st0" x="3.75" y="7.5" width="37.5" height="30" rx="1.01" ry="1.01"/>
    <rect class="st0" x="7.5" y="3.75" width="30" height="37.5" rx="1.01" ry="1.01"/>
    <rect class="st0" x="3.75" y="3.75" width="37.5" height="37.5" rx="1.01" ry="1.01"/>
    <rect class="st1" width="45" height="45"/>
  </g>
  <path class="st2" d="M18.97,31.04c0,1.83-.71,3.54-2,4.83s-3.01,2-4.83,2-3.54-.71-4.83-2-2-3.01-2-4.83c0-3.06,3.06-7.19,5.29-10.2.48-.65.94-1.27,1.31-1.8.05-.08.14-.12.23-.12s.18.05.23.12c.37.53.83,1.15,1.31,1.8,2.23,3.02,5.29,7.15,5.29,10.2Z"/>
  <path class="st2" d="M39.13,36.03l-12.46-12.46c1.18-1.82,1.87-3.98,1.87-6.31,0-6.41-5.21-11.62-11.62-11.62s-11.62,5.21-11.62,11.62,5.21,11.62,11.62,11.62c2.68,0,5.15-.92,7.11-2.45l12.34,12.34c.38.38.88.57,1.37.57s.99-.19,1.37-.57c.76-.76.76-1.99,0-2.75h.02ZM9.19,17.27c0-4.26,3.47-7.73,7.73-7.73s7.73,3.47,7.73,7.73-3.47,7.73-7.73,7.73-7.73-3.47-7.73-7.73Z"/>
</svg>