<?xml version="1.0" encoding="UTF-8"?>
<svg xmlns="http://www.w3.org/2000/svg" version="1.1" viewBox="0 0 45 45">
  <!-- Generator: Adobe Illustrator 29.4.0, SVG Export Plug-In . SVG Version: 2.1.0 Build 152)  -->
  <defs>
    <style>
      .st0 {
        fill: #333;
      }

      .st1 {
        fill: #fff;
      }

      .st2 {
        fill: #808081;
      }

      .st3 {
        fill: #c0c0bf;
      }
    </style>
  </defs>
  <g id="Capa_1">
    <path class="st3" d="M35.38,27.49c0,3.44-1.34,6.68-3.77,9.11-2.43,2.43-5.67,3.77-9.11,3.77s-6.68-1.34-9.11-3.77-3.77-5.67-3.77-9.11c0-5.77,5.77-13.55,9.98-19.24.91-1.23,1.77-2.39,2.47-3.39.1-.14.26-.23.43-.23s.34.08.43.23c.7,1,1.56,2.16,2.47,3.39,4.21,5.69,9.98,13.47,9.98,19.24Z"/>
    <path class="st2" d="M22.5,4.63c-7.44,15.31-9.74,28.27,0,35.74-3.44,0-6.68-1.34-9.11-3.77s-3.77-5.67-3.77-9.11c0-5.77,5.77-13.55,9.98-19.24.91-1.23,1.77-2.39,2.47-3.39.1-.14.26-.23.43-.23Z"/>
    <path class="st1" d="M26.45,37.51c-.48,0-.88-.38-.9-.86-.02-.5.36-.92.86-.94,1.81-.09,5.8-4.22,5.8-8.44,0-.5.4-.9.9-.9h0c.5,0,.9.4.9.9,0,4.77-4.41,10.09-7.52,10.24-.01,0-.03,0-.04,0Z"/>
  </g>
  <g id="Capa_2">
    <path class="st0" d="M16.82,29.31c1.63-1.35,2.92-2.46,3.86-3.33.94-.87,1.74-1.78,2.39-2.72.65-.95.97-1.88.97-2.78,0-.68-.16-1.22-.47-1.6-.32-.38-.79-.57-1.43-.57s-1.13.24-1.49.71-.54,1.15-.54,2.01h-4.12c.03-1.42.34-2.6.91-3.55.58-.95,1.33-1.65,2.27-2.1.94-.45,1.99-.67,3.14-.67,1.98,0,3.48.51,4.49,1.52,1.01,1.02,1.51,2.34,1.51,3.98,0,1.78-.61,3.44-1.83,4.96s-2.77,3.01-4.65,4.46h6.75v3.47h-12.55v-3.17c.57-.45.82-.66.77-.62Z"/>
  </g>
</svg>